<svg width="417" height="375" fill="none" xmlns="http://www.w3.org/2000/svg">
  <path
    d="m375 0 41.667 83.333v270.834A20.833 20.833 0 0 1 395.833 375h-375A20.833 20.833 0 0 1 0 354.167V83.417L41.667 0H375Zm-25.75 41.667H67.417L46.604 83.333h323.479L349.25 41.667Z"
    fill="#2B2C30"/>
  <path
    d="M192.111 164a7.892 7.892 0 0 1 7.889 7.889v126.222a7.892 7.892 0 0 1-7.889 7.889H65.889A7.892 7.892 0 0 1 58 298.111V171.889A7.892 7.892 0 0 1 65.889 164H192.11Zm-23.667 31.556H89.556v78.888H129v-59.166h19.722v59.166h19.722v-78.888ZM265.611 165a5 5 0 0 1 5 5v21a5 5 0 0 1-5 5H246v79.5h80.5v-17.722a6 6 0 0 1 6-6H352a6 6 0 0 1 6 6v41.333a7.86 7.86 0 0 1-2.327 5.578 7.97 7.97 0 0 1-5.617 2.311H222.944a7.97 7.97 0 0 1-5.617-2.311 7.86 7.86 0 0 1-2.327-5.578V172.889a7.86 7.86 0 0 1 2.327-5.578 7.97 7.97 0 0 1 5.617-2.311h42.667Zm71.095 42-40.963 41.23a6 6 0 0 1-8.499.014l-13.519-13.519a6 6 0 0 1-.017-8.468L314.627 185l-13.279-13.159c-2.537-2.514-.757-6.841 2.816-6.841H353a5 5 0 0 1 5 5v48.513c0 3.555-4.291 5.344-6.816 2.84L336.706 207Z"
    fill="#CF0404"/>
</svg>
